<?xml version="1.0" encoding="UTF-8"?>
<svg xmlns="http://www.w3.org/2000/svg" style="display:none">
  <!-- All shared paper-cut primitives. Use via:
       <svg><use href="/illos/theme-illos.svg#sun"/></svg>
       Colours inherit from currentColor so each app's palette flows in. -->

  <symbol id="pin" viewBox="0 0 24 28">
    <circle cx="12" cy="9" r="7" fill="currentColor"/>
    <rect x="10.5" y="13" width="3" height="14" fill="#2A1F12"/>
  </symbol>

  <symbol id="sticker-circle" viewBox="0 0 24 24">
    <circle cx="12" cy="12" r="10" fill="currentColor"/>
    <circle cx="12" cy="12" r="10" fill="none" stroke="#FDF8EB" stroke-width="1.5" stroke-dasharray="3 3"/>
  </symbol>

  <symbol id="postcard" viewBox="0 0 32 22">
    <rect x="0.75" y="0.75" width="30.5" height="20.5" rx="1.5" fill="#FDF8EB" stroke="currentColor" stroke-width="1.5"/>
    <rect x="22" y="3" width="6" height="7" fill="currentColor"/>
    <line x1="3" y1="14" x2="18" y2="14" stroke="currentColor" stroke-width="1" stroke-linecap="round" opacity="0.5"/>
    <line x1="3" y1="17" x2="14" y2="17" stroke="currentColor" stroke-width="1" stroke-linecap="round" opacity="0.5"/>
  </symbol>

  <symbol id="sun" viewBox="0 0 24 24">
    <circle cx="12" cy="12" r="5" fill="currentColor"/>
    <g stroke="currentColor" stroke-width="2" stroke-linecap="round">
      <line x1="12" y1="2"  x2="12" y2="5"/>
      <line x1="12" y1="19" x2="12" y2="22"/>
      <line x1="2"  y1="12" x2="5"  y2="12"/>
      <line x1="19" y1="12" x2="22" y2="12"/>
      <line x1="5"  y1="5"  x2="7"  y2="7"/>
      <line x1="17" y1="17" x2="19" y2="19"/>
      <line x1="5"  y1="19" x2="7"  y2="17"/>
      <line x1="17" y1="7"  x2="19" y2="5"/>
    </g>
  </symbol>

  <symbol id="cloud" viewBox="0 0 32 24">
    <path d="M8 18 C 3 18, 3 11, 9 11 C 9 6, 17 4, 19 10 C 25 9, 28 14, 25 18 Z" fill="currentColor"/>
  </symbol>

  <symbol id="rain" viewBox="0 0 32 28">
    <path d="M8 14 C 3 14, 3 7, 9 7 C 9 2, 17 0, 19 6 C 25 5, 28 10, 25 14 Z" fill="currentColor"/>
    <line x1="10" y1="18" x2="8"  y2="24" stroke="currentColor" stroke-width="2" stroke-linecap="round"/>
    <line x1="16" y1="18" x2="14" y2="26" stroke="currentColor" stroke-width="2" stroke-linecap="round"/>
    <line x1="22" y1="18" x2="20" y2="24" stroke="currentColor" stroke-width="2" stroke-linecap="round"/>
  </symbol>

  <symbol id="wind" viewBox="0 0 32 24">
    <path d="M2 8 L 20 8 C 23 8, 24 4, 21 4 C 19 4, 19 6, 19 6" fill="none" stroke="currentColor" stroke-width="2" stroke-linecap="round"/>
    <path d="M2 13 L 26 13 C 30 13, 30 18, 26 18 C 24 18, 24 16, 24 16" fill="none" stroke="currentColor" stroke-width="2" stroke-linecap="round"/>
    <path d="M2 18 L 14 18" fill="none" stroke="currentColor" stroke-width="2" stroke-linecap="round"/>
  </symbol>

  <symbol id="snow" viewBox="0 0 24 24">
    <g stroke="currentColor" stroke-width="2" stroke-linecap="round" fill="none">
      <line x1="12" y1="3" x2="12" y2="21"/>
      <line x1="3"  y1="12" x2="21" y2="12"/>
      <line x1="5"  y1="5"  x2="19" y2="19"/>
      <line x1="5"  y1="19" x2="19" y2="5"/>
    </g>
  </symbol>

  <symbol id="check" viewBox="0 0 24 24">
    <path d="M4 12 L 10 18 L 20 6" fill="none" stroke="currentColor" stroke-width="2.5" stroke-linecap="round" stroke-linejoin="round"/>
  </symbol>

  <symbol id="cross" viewBox="0 0 24 24">
    <path d="M6 6 L 18 18 M 18 6 L 6 18" stroke="currentColor" stroke-width="2.5" stroke-linecap="round"/>
  </symbol>

  <symbol id="arrow-right" viewBox="0 0 24 24">
    <path d="M4 12 H 20 M 14 6 L 20 12 L 14 18" fill="none" stroke="currentColor" stroke-width="2" stroke-linecap="round" stroke-linejoin="round"/>
  </symbol>
</svg>
